<svg xmlns="http://www.w3.org/2000/svg" width="16" height="16" fill="none"><path fill="#009F87" d="M0 10.673V5.318c0-.757 0-1.136.12-1.466a2 2 0 0 1 .502-.768L8 1v14.99q-.248 0-.493-.04c-.368-.061-.722-.216-1.43-.526l-4.16-1.82c-.693-.303-1.04-.455-1.295-.697a2 2 0 0 1-.502-.768c-.12-.33-.12-.71-.12-1.466"/><path fill="#2BB5A0" d="M8 1v14.99q.248 0 .493-.04c.368-.061.722-.216 1.43-.526l4.16-1.82c.693-.303 1.04-.455 1.295-.697.225-.214.397-.477.502-.768.12-.33.12-.71.12-1.466V5.318c0-.757 0-1.136-.12-1.466a2 2 0 0 0-.502-.768z"/><path fill="#64EFD9" fill-rule="evenodd" d="M15.172 3.862c.323-.141.46-.536.206-.778-.255-.242-.602-.394-1.295-.697L9.923.567C9.216.257 8.862.102 8.494.041a3 3 0 0 0-.986 0c-.368.061-.722.216-1.43.526l-4.16 1.82c-.693.303-1.04.455-1.295.697s-.117.637.206.778l5.97 2.612a3 3 0 0 0 2.404 0z" clip-rule="evenodd"/></svg>