<svg width="16" height="16" fill="none" xmlns="http://www.w3.org/2000/svg"><path d="M8 8 2 4.27 8 1l6 3.27L8 8Z" fill="#85D0BB"/><path d="M8 8v7l6.208-3.343v-7.5L8 8Z" fill="#0CA277"/><path d="M8 8 1.846 4.186v7.6L8 15V8Z" fill="#55BEA0"/><path d="m6.578 14.734-3.5-1.884A3 3 0 0 1 1.5 10.208V5.792A3 3 0 0 1 3.078 3.15l3.5-1.884a3 3 0 0 1 2.844 0l3.5 1.884A3 3 0 0 1 14.5 5.792v4.416a3 3 0 0 1-1.578 2.642l-3.5 1.884a3 3 0 0 1-2.844 0Z" stroke="#005858" stroke-linecap="round" stroke-linejoin="round"/></svg>