<svg width="16" height="16" fill="none" xmlns="http://www.w3.org/2000/svg"><path d="M10.5 10.999c0-.944.493-1.8 1.047-2.563a5 5 0 1 0-8.095 0C4.008 9.2 4.5 10.056 4.5 11V13.5c1.5 2.5 4.5 2.5 6 0v-2.501Z" fill="#F8AB49"/><path fill-rule="evenodd" clip-rule="evenodd" d="M9.547 6.436C8.993 7.2 8.5 8.056 8.5 9V11.5c-.974 1.624-2.582 2.193-4 1.707v.293c1.5 2.5 4.5 2.5 6 0v-2.501c0-.944.493-1.8 1.047-2.563a4.999 4.999 0 0 0-1.656-7.328c.389.71.609 1.526.609 2.392a4.978 4.978 0 0 1-.953 2.936Z" fill="#D39241"/><path d="M10.5 9.5c-1 2.5-5 2.5-6 0v4c1.5 2.5 4.5 2.5 6 0v-4Z" fill="#C4C4C4"/><path d="M4.5 11.5c1 2 5 2 6 0" stroke="#ACACAC" stroke-linecap="round" stroke-linejoin="round"/><path d="M10.5 10.999c0-.944.493-1.8 1.047-2.563a5 5 0 1 0-8.095 0C4.008 9.2 4.5 10.056 4.5 11V13.5c1 2.5 5 2.5 6 0v-2.501Z" stroke="#535353"/><circle cx="6" cy="4" r="1" fill="#F6CF9D"/></svg>